HIERARCHY
ROOT Junyuan_V1:Solving:Hips
{
	OFFSET 0.000000 0.000000 0.000000
	CHANNELS 6 Xposition Yposition Zposition Xrotation Yrotation Zrotation
	JOINT Junyuan_V1:Solving:Spine
	{
		OFFSET 0.000000 -11.180205 2.228564
		CHANNELS 6 Xposition Yposition Zposition Xrotation Yrotation Zrotation
		JOINT Junyuan_V1:Solving:Spine1
		{
			OFFSET 0.000000 -8.682996 1.531049
			CHANNELS 6 Xposition Yposition Zposition Xrotation Yrotation Zrotation
			JOINT Junyuan_V1:Solving:Spine2
			{
				OFFSET 0.000000 -8.783394 0.768450
				CHANNELS 6 Xposition Yposition Zposition Xrotation Yrotation Zrotation
				JOINT Junyuan_V1:Solving:Spine3
				{
					OFFSET 0.000000 -8.816944 0.000000
					CHANNELS 6 Xposition Yposition Zposition Xrotation Yrotation Zrotation
					JOINT Junyuan_V1:Solving:Neck
					{
						OFFSET 0.000000 -11.336071 -1.133605
						CHANNELS 6 Xposition Yposition Zposition Xrotation Yrotation Zrotation
						JOINT Junyuan_V1:Solving:Neck1
						{
							OFFSET 0.000000 -7.643246 -0.668695
							CHANNELS 6 Xposition Yposition Zposition Xrotation Yrotation Zrotation
							JOINT Junyuan_V1:Solving:Head
							{
								OFFSET 0.000000 -7.555870 -1.332303
								CHANNELS 6 Xposition Yposition Zposition Xrotation Yrotation Zrotation
								JOINT Junyuan_V1:Solving:HeadEnd
								{
									OFFSET 0.000000 -9.728081 0.000002
									CHANNELS 6 Xposition Yposition Zposition Xrotation Yrotation Zrotation
									End Site
									{
										OFFSET 0.000000 -9.728081 0.000002
									}
								}
							}
						}
					}
					JOINT Junyuan_V1:Solving:RightShoulder
					{
						OFFSET 0.000000 -8.097195 -5.270916
						CHANNELS 6 Xposition Yposition Zposition Xrotation Yrotation Zrotation
						JOINT Junyuan_V1:Solving:RightArm
						{
							OFFSET -20.762394 -0.000008 0.000000
							CHANNELS 6 Xposition Yposition Zposition Xrotation Yrotation Zrotation
							JOINT Junyuan_V1:Solving:RightForeArm
							{
								OFFSET -29.048946 -0.000008 0.000000
								CHANNELS 6 Xposition Yposition Zposition Xrotation Yrotation Zrotation
								JOINT Junyuan_V1:Solving:RightHand
								{
									OFFSET -22.031235 -0.000008 0.000000
									CHANNELS 6 Xposition Yposition Zposition Xrotation Yrotation Zrotation
									JOINT Junyuan_V1:Solving:RightHandThumb1
									{
										OFFSET -3.579254 2.890213 -2.661497
										CHANNELS 6 Xposition Yposition Zposition Xrotation Yrotation Zrotation
										End Site
										{
											OFFSET -5.229485 0.000000 -5.277840
										}
									}
									JOINT Junyuan_V1:Solving:RightHandMiddle1
									{
										OFFSET -9.544678 -0.000004 0.061184
										CHANNELS 6 Xposition Yposition Zposition Xrotation Yrotation Zrotation
										End Site
										{
											OFFSET -7.429878 -0.000004 0.000000
										}
									}
								}
							}
						}
					}
					JOINT Junyuan_V1:Solving:LeftShoulder
					{
						OFFSET 0.000000 -8.097195 -5.270916
						CHANNELS 6 Xposition Yposition Zposition Xrotation Yrotation Zrotation
						JOINT Junyuan_V1:Solving:LeftArm
						{
							OFFSET 20.762394 -0.000008 0.000000
							CHANNELS 6 Xposition Yposition Zposition Xrotation Yrotation Zrotation
							JOINT Junyuan_V1:Solving:LeftForeArm
							{
								OFFSET 29.048946 -0.000008 0.000000
								CHANNELS 6 Xposition Yposition Zposition Xrotation Yrotation Zrotation
								JOINT Junyuan_V1:Solving:LeftHand
								{
									OFFSET 22.031235 -0.000008 0.000000
									CHANNELS 6 Xposition Yposition Zposition Xrotation Yrotation Zrotation
									JOINT Junyuan_V1:Solving:LeftHandThumb1
									{
										OFFSET 3.579254 2.890213 -2.661497
										CHANNELS 6 Xposition Yposition Zposition Xrotation Yrotation Zrotation
										End Site
										{
											OFFSET 5.229485 0.000000 -5.277840
										}
									}
									JOINT Junyuan_V1:Solving:LeftHandMiddle1
									{
										OFFSET 9.544678 -0.000004 0.061184
										CHANNELS 6 Xposition Yposition Zposition Xrotation Yrotation Zrotation
										End Site
										{
											OFFSET 7.429878 -0.000004 0.000000
										}
									}
								}
							}
						}
					}
				}
			}
		}
	}
	JOINT Junyuan_V1:Solving:RightUpLeg
	{
		OFFSET -10.825166 0.000000 0.000000
		CHANNELS 6 Xposition Yposition Zposition Xrotation Yrotation Zrotation
		JOINT Junyuan_V1:Solving:RightLeg
		{
			OFFSET 0.000000 43.678444 -0.000006
			CHANNELS 6 Xposition Yposition Zposition Xrotation Yrotation Zrotation
			JOINT Junyuan_V1:Solving:RightFoot
			{
				OFFSET 0.000000 36.488441 -0.000006
				CHANNELS 6 Xposition Yposition Zposition Xrotation Yrotation Zrotation
				JOINT Junyuan_V1:Solving:RightForeFoot
				{
					OFFSET 0.000000 3.967834 -0.000000
					CHANNELS 6 Xposition Yposition Zposition Xrotation Yrotation Zrotation
					JOINT Junyuan_V1:Solving:RightToeBase
					{
						OFFSET 0.000000 0.000000 -15.539299
						CHANNELS 6 Xposition Yposition Zposition Xrotation Yrotation Zrotation
						JOINT Junyuan_V1:Solving:RightToeBaseEnd
						{
							OFFSET 0.000000 0.000000 -3.486985
							CHANNELS 6 Xposition Yposition Zposition Xrotation Yrotation Zrotation
							End Site
							{
								OFFSET 0.000000 -3.486992 0.000000
							}
						}
					}
				}
			}
		}
	}
	JOINT Junyuan_V1:Solving:LeftUpLeg
	{
		OFFSET 10.825166 0.000000 0.000000
		CHANNELS 6 Xposition Yposition Zposition Xrotation Yrotation Zrotation
		JOINT Junyuan_V1:Solving:LeftLeg
		{
			OFFSET 0.000000 43.678444 -0.000006
			CHANNELS 6 Xposition Yposition Zposition Xrotation Yrotation Zrotation
			JOINT Junyuan_V1:Solving:LeftFoot
			{
				OFFSET 0.000000 36.488441 -0.000006
				CHANNELS 6 Xposition Yposition Zposition Xrotation Yrotation Zrotation
				JOINT Junyuan_V1:Solving:LeftForeFoot
				{
					OFFSET 0.000000 3.967834 -0.000000
					CHANNELS 6 Xposition Yposition Zposition Xrotation Yrotation Zrotation
					JOINT Junyuan_V1:Solving:LeftToeBase
					{
						OFFSET 0.000000 0.000000 -15.539299
						CHANNELS 6 Xposition Yposition Zposition Xrotation Yrotation Zrotation
						JOINT Junyuan_V1:Solving:LeftToeBaseEnd
						{
							OFFSET 0.000000 0.000000 -3.974441
							CHANNELS 6 Xposition Yposition Zposition Xrotation Yrotation Zrotation
							End Site
							{
								OFFSET 0.000000 -3.974442 0.000000
							}
						}
					}
				}
			}
		}
	}
}
MOTION
Frames: 4
Frame Time: 0.041667
27.560213 -20.478817 -77.781258 52.668606 -170.893218 -1.929359 0.000002 -11.180186 2.228562 15.191198 1.405266 0.664991 0.000001 -8.683003 1.531051 14.114284 -0.032351 0.368797 0.000003 -8.783394 0.768431 18.438231 -3.787272 0.610481 -0.000002 -8.816945 -0.000018 -7.766107 -0.253751 -1.030778 -0.000001 -11.336042 -1.133623 -40.697610 -5.259779 1.308539 -0.000001 -7.643220 -0.668680 21.147268 3.230275 -2.520845 -0.000006 -7.555883 -1.332315 5.924720 0.167394 0.053471 0.000000 -9.728088 0.000011 -0.000004 0.000000 0.000000 0.000003 -8.097187 -5.270948 0.000006 6.497807 19.416573 -20.762394 -0.000018 0.000013 -76.635173 -22.853588 -93.810114 -29.048939 -0.000003 -0.000001 -40.110071 -12.437368 -10.283012 -22.031248 -0.000011 -0.000004 6.849613 -12.061072 29.893296 -3.579276 2.890201 -2.661515 0.000006 0.000003 0.000001 -9.544708 -0.000007 0.061176 0.000000 0.000001 -0.000000 0.000004 -8.097187 -5.270948 0.000002 -9.797478 -19.130042 20.762386 -0.000009 -0.000006 -80.476014 30.805236 92.805776 29.048941 -0.000019 -0.000010 -62.272078 5.919013 11.099709 22.031250 -0.000018 -0.000003 4.996100 11.213449 -24.205991 3.579258 2.890213 -2.661465 0.000005 0.000005 -0.000005 9.544680 -0.000007 0.061201 0.000002 0.000002 0.000003 -10.825163 0.000015 0.000000 -74.251970 10.715672 22.202476 0.000006 43.678448 0.000008 38.612658 -0.000001 0.000003 0.000002 36.488422 -0.000004 -0.280311 18.414231 1.328476 -0.000004 3.967826 -0.000021 0.000001 0.000003 0.000002 -0.000003 0.000000 -15.539313 6.955770 0.000010 -0.000002 0.000002 -0.000015 -3.486981 0.000001 -0.000001 0.000002 10.825166 0.000026 -0.000008 -81.735344 -17.048232 -26.589208 -0.000008 43.678436 0.000009 52.628462 0.000002 0.000003 -0.000006 36.488438 0.000002 -4.673493 -3.808653 5.536689 0.000005 3.967827 0.000003 -0.000000 0.000003 0.000000 0.000003 -0.000019 -15.539308 0.084717 0.000005 -0.000000 -0.000003 -0.000008 -3.974445 -0.000001 -0.000001 -0.000000 
28.253101 -20.492773 -77.612503 52.884205 -171.252254 -2.013216 0.000004 -11.180195 2.228558 15.249273 1.410726 0.686446 0.000001 -8.683000 1.531054 14.118658 -0.033393 0.355610 0.000003 -8.783393 0.768444 18.410157 -3.702410 0.614242 -0.000003 -8.816934 -0.000014 -7.750255 -0.221513 -1.039550 0.000003 -11.336069 -1.133613 -40.697518 -5.184555 1.226388 0.000006 -7.643236 -0.668691 21.279999 3.256314 -2.585243 -0.000006 -7.555848 -1.332296 5.939185 0.169566 0.048025 0.000005 -9.728081 0.000009 -0.000001 -0.000001 -0.000001 0.000002 -8.097202 -5.270910 -0.000000 6.433617 19.259475 -20.762411 -0.000026 -0.000004 -76.497859 -23.030380 -93.779255 -29.048944 -0.000016 -0.000013 -40.221092 -12.324834 -10.232650 -22.031223 -0.000017 0.000005 6.894623 -12.119397 29.939383 -3.579291 2.890220 -2.661506 0.000006 0.000009 0.000003 -9.544706 0.000009 0.061185 0.000001 0.000007 0.000002 0.000002 -8.097187 -5.270915 -0.000002 -9.836581 -19.230927 20.762390 -0.000003 0.000010 -80.375679 30.734741 92.853697 29.048952 -0.000008 0.000004 -62.185095 5.986867 11.183070 22.031242 -0.000024 -0.000007 4.984750 11.209572 -24.164371 3.579266 2.890209 -2.661533 0.000002 -0.000005 -0.000006 9.544698 -0.000004 0.061161 -0.000001 -0.000008 -0.000004 -10.825158 -0.000014 0.000004 -73.112128 10.640318 22.182503 -0.000002 43.678440 -0.000004 37.291057 0.000004 0.000006 0.000007 36.488426 -0.000002 1.021519 16.908811 -0.170834 0.000007 3.967827 -0.000005 -0.000001 0.000001 -0.000003 -0.000004 -0.000013 -15.539310 3.888772 -0.000007 -0.000001 -0.000004 -0.000001 -3.487000 -0.000002 -0.000000 0.000001 10.825172 0.000000 -0.000007 -81.599416 -17.071663 -26.788808 0.000003 43.678432 0.000002 52.534181 0.000002 0.000004 0.000001 36.488468 -0.000005 -4.438895 -3.469569 5.812393 0.000002 3.967827 0.000002 -0.000000 0.000003 -0.000000 -0.000000 0.000003 -15.539317 0.043558 -0.000002 -0.000001 -0.000002 -0.000000 -3.974441 -0.000001 -0.000004 -0.000000 
28.961346 -20.511150 -77.440681 53.115926 -171.650194 -2.050213 0.000001 -11.180182 2.228572 15.317903 1.425023 0.667038 0.000001 -8.683011 1.531045 14.114049 -0.035986 0.307801 0.000001 -8.783405 0.768462 18.369232 -3.607238 0.607678 0.000001 -8.816927 0.000011 -7.703705 -0.193007 -1.019898 0.000003 -11.336079 -1.133608 -40.740074 -5.074583 1.121744 -0.000001 -7.643267 -0.668697 21.433274 3.283914 -2.608191 0.000005 -7.555865 -1.332312 5.977455 0.171337 0.048927 0.000001 -9.728096 -0.000004 0.000000 0.000000 -0.000001 0.000004 -8.097195 -5.270910 0.000003 6.368589 19.120478 -20.762386 -0.000015 -0.000008 -76.349521 -23.102514 -93.765595 -29.048950 -0.000024 -0.000009 -40.187225 -12.236864 -10.150308 -22.031229 -0.000022 0.000002 6.963450 -12.149221 30.128323 -3.579246 2.890208 -2.661505 0.000006 0.000002 0.000001 -9.544692 0.000000 0.061178 0.000003 0.000002 0.000001 0.000004 -8.097187 -5.270917 -0.000001 -9.860433 -19.305607 20.762386 -0.000005 0.000000 -80.318920 30.731183 92.912463 29.048944 -0.000026 0.000004 -62.017380 6.030044 11.183959 22.031244 -0.000014 -0.000004 4.918070 11.075203 -24.129580 3.579254 2.890213 -2.661496 -0.000002 0.000005 0.000001 9.544678 -0.000005 0.061179 0.000001 0.000001 -0.000000 -10.825169 0.000017 0.000009 -72.286713 10.758962 22.306240 -0.000002 43.678452 -0.000001 36.948141 -0.000000 0.000002 0.000010 36.488438 -0.000002 3.434239 15.321779 -6.216958 0.000008 3.967827 -0.000008 0.000000 -0.000002 0.000002 0.000007 0.000010 -15.539294 0.634681 0.000001 0.000002 0.000004 -0.000016 -3.486985 -0.000001 -0.000002 0.000002 10.825164 0.000009 0.000014 -81.448776 -16.992887 -26.948535 0.000002 43.678429 -0.000006 52.459596 0.000003 0.000001 0.000002 36.488453 -0.000001 -4.144025 -3.128661 6.055784 0.000003 3.967834 0.000005 -0.000000 0.000002 0.000000 0.000005 -0.000016 -15.539300 0.063714 0.000003 0.000000 0.000003 -0.000008 -3.974448 -0.000000 -0.000002 -0.000000 
29.641235 -20.520336 -77.283348 53.299272 -172.015705 -2.153454 0.000001 -11.180194 2.228558 15.566739 1.397399 0.706268 0.000005 -8.683013 1.531044 14.158622 -0.052901 0.343156 0.000005 -8.783396 0.768466 17.883295 -3.635221 0.447687 -0.000007 -8.816949 -0.000016 -7.776999 -0.206928 -1.204969 -0.000001 -11.336070 -1.133611 -40.862174 -5.260112 1.566941 -0.000001 -7.643248 -0.668675 22.228234 3.411019 -3.000917 0.000003 -7.555861 -1.332302 5.830494 0.176654 0.039788 -0.000006 -9.728088 0.000010 0.000002 0.000000 -0.000000 -0.000001 -8.097198 -5.270928 -0.000001 6.355761 19.110343 -20.762390 -0.000017 0.000003 -75.913045 -23.297593 -93.702839 -29.048965 -0.000014 0.000000 -40.115163 -12.154561 -10.059274 -22.031237 -0.000014 -0.000003 7.005273 -12.110129 30.358227 -3.579257 2.890220 -2.661483 0.000005 0.000005 -0.000003 -9.544696 0.000008 0.061209 0.000002 0.000000 -0.000003 0.000001 -8.097206 -5.270929 -0.000002 -9.580459 -18.925259 20.762390 -0.000017 0.000013 -79.926600 31.172140 92.922087 29.048954 0.000001 0.000004 -62.086720 6.051334 11.254301 22.031219 -0.000013 -0.000015 4.901917 10.959344 -24.281261 3.579284 2.890217 -2.661515 -0.000001 -0.000005 -0.000001 9.544704 -0.000001 0.061172 0.000002 -0.000008 0.000005 -10.825170 -0.000000 -0.000002 -72.086452 10.836994 22.604812 0.000005 43.678463 -0.000004 37.044132 -0.000001 -0.000000 0.000012 36.488422 -0.000007 5.126900 12.752735 -13.315777 0.000006 3.967827 -0.000019 -0.000000 -0.000005 -0.000000 0.000002 -0.000004 -15.539300 7.721280 -0.000002 0.000000 0.000006 -0.000007 -3.486997 0.000001 -0.000004 -0.000000 10.825166 0.000004 -0.000007 -81.266608 -16.896923 -27.036590 -0.000001 43.678444 0.000002 52.336413 0.000003 0.000001 -0.000003 36.488434 -0.000006 -3.876126 -2.908109 6.329418 -0.000006 3.967819 -0.000002 0.000000 -0.000000 -0.000000 0.000001 -0.000015 -15.539303 0.112383 0.000001 0.000000 -0.000005 -0.000008 -3.974449 -0.000001 -0.000001 -0.000000 
